<?xml version="1.0" standalone="no"?>
<!DOCTYPE svg PUBLIC "-//W3C//DTD SVG 20010904//EN"
 "http://www.w3.org/TR/2001/REC-SVG-20010904/DTD/svg10.dtd">
<svg version="1.0" xmlns="http://www.w3.org/2000/svg"
 width="64.000000pt" height="64.000000pt" viewBox="0 0 64.000000 64.000000"
 preserveAspectRatio="xMidYMid meet">

<g transform="translate(0.000000,64.000000) scale(0.100000,-0.100000)"
fill="#000000" stroke="none">
<path d="M33 622 c-27 -17 -33 -70 -33 -301 0 -265 5 -294 52 -310 41 -15 495
-15 536 0 47 16 52 45 52 310 0 231 -6 284 -33 301 -16 10 -558 10 -574 0z
m565 -79 l3 -53 -280 0 -281 0 0 48 c0 27 3 52 7 55 4 4 128 6 277 5 l271 -3
3 -52z m2 -288 c0 -192 -1 -205 -19 -215 -26 -14 -496 -14 -522 0 -18 10 -19
23 -19 215 l0 205 280 0 280 0 0 -205z"/>
<path d="M83 548 c2 -7 10 -13 17 -13 7 0 15 6 18 13 2 7 -5 12 -18 12 -13 0
-20 -5 -17 -12z"/>
<path d="M163 548 c2 -7 10 -13 17 -13 7 0 15 6 18 13 2 7 -5 12 -18 12 -13 0
-20 -5 -17 -12z"/>
<path d="M96 341 c-10 -16 35 -181 49 -181 7 0 19 23 26 53 l13 52 15 -53 c9
-30 21 -54 26 -55 6 0 17 27 27 61 30 111 31 122 15 122 -10 0 -20 -19 -28
-52 l-13 -53 -14 53 c-8 28 -21 52 -27 52 -7 0 -19 -24 -26 -52 l-13 -53 -15
52 c-18 57 -26 70 -35 54z"/>
<path d="M307 333 c-4 -3 -7 -41 -7 -83 0 -88 10 -103 61 -98 43 4 51 28 10
28 -26 0 -31 4 -31 24 0 19 6 25 27 28 39 4 42 28 4 28 -26 0 -31 4 -31 24 0
19 6 25 27 28 47 5 40 28 -9 28 -25 0 -48 -3 -51 -7z"/>
<path d="M430 251 c0 -81 2 -90 20 -96 61 -19 131 57 86 94 -7 6 -11 22 -8 36
6 36 -14 55 -59 55 l-39 0 0 -89z m70 45 c0 -8 -7 -17 -16 -20 -23 -9 -24 -8
-24 14 0 13 7 20 20 20 11 0 20 -6 20 -14z m17 -72 c4 -11 -1 -22 -12 -30 -30
-22 -45 -17 -45 16 0 25 4 30 25 30 15 0 28 -7 32 -16z"/>
</g>
</svg>
