<?xml version="1.0" standalone="no"?>
<!DOCTYPE svg PUBLIC "-//W3C//DTD SVG 20010904//EN"
 "http://www.w3.org/TR/2001/REC-SVG-20010904/DTD/svg10.dtd">
<svg version="1.0" xmlns="http://www.w3.org/2000/svg"
 width="64.000000pt" height="64.000000pt" viewBox="0 0 64.000000 64.000000"
 preserveAspectRatio="xMidYMid meet">

<g transform="translate(0.000000,64.000000) scale(0.100000,-0.100000)"
fill="#000000" stroke="none">
<path d="M33 622 c-29 -18 -43 -108 -21 -130 17 -17 599 -17 616 0 22 22 8
112 -21 130 -16 10 -558 10 -574 0z m85 -64 c-3 -7 -11 -13 -18 -13 -7 0 -15
6 -17 13 -3 7 4 12 17 12 13 0 20 -5 18 -12z m80 0 c-3 -7 -11 -13 -18 -13 -7
0 -15 6 -17 13 -3 7 4 12 17 12 13 0 20 -5 18 -12z m360 0 c-3 -9 -31 -13 -93
-13 -62 0 -90 4 -92 13 -4 9 19 12 92 12 73 0 96 -3 93 -12z"/>
<path d="M7 443 c-11 -11 -8 -357 4 -391 7 -20 21 -34 41 -41 42 -15 495 -15
536 0 46 16 54 54 50 259 l-3 175 -311 3 c-171 1 -313 -1 -317 -5z m204 -175
l13 -53 13 45 c21 71 23 74 34 63 14 -14 -29 -183 -46 -183 -7 0 -19 23 -26
53 l-13 52 -15 -53 c-9 -30 -20 -54 -26 -55 -5 0 -17 27 -27 61 -30 111 -31
122 -15 122 10 0 20 -19 28 -52 l13 -53 13 45 c19 66 22 72 32 66 5 -3 15 -30
22 -58z m187 40 c-3 -7 -19 -14 -37 -16 -27 -3 -32 -7 -29 -25 2 -17 11 -23
36 -25 42 -4 37 -26 -7 -30 -27 -3 -32 -7 -29 -25 2 -17 11 -23 36 -25 47 -5
35 -27 -14 -27 l-39 0 -3 93 -3 92 46 0 c33 0 45 -4 43 -12z m122 -3 c7 -8 10
-26 8 -40 -3 -14 1 -30 8 -36 45 -37 -25 -113 -86 -94 -18 6 -20 15 -20 96 l0
89 39 0 c22 0 44 -6 51 -15z"/>
<path d="M460 270 c0 -22 1 -23 24 -14 23 9 20 34 -4 34 -13 0 -20 -7 -20 -20z"/>
<path d="M460 190 c0 -33 15 -38 45 -16 25 18 13 46 -20 46 -21 0 -25 -5 -25
-30z"/>
</g>
</svg>
